%FSLAX24Y24*%
%MOIN*%
%SFA1B1*%

%IPPOS*%
%AMD32*
4,1,8,0.015000,0.021700,-0.015000,0.021700,-0.020700,0.016000,-0.020700,-0.016000,-0.015000,-0.021700,0.015000,-0.021700,0.020700,-0.016000,0.020700,0.016000,0.015000,0.021700,0.0*
1,1,0.011400,0.015000,0.016000*
1,1,0.011400,-0.015000,0.016000*
1,1,0.011400,-0.015000,-0.016000*
1,1,0.011400,0.015000,-0.016000*
%
%AMD34*
4,1,8,0.022000,0.019700,-0.022000,0.019700,-0.027600,0.014100,-0.027600,-0.014100,-0.022000,-0.019700,0.022000,-0.019700,0.027600,-0.014100,0.027600,0.014100,0.022000,0.019700,0.0*
1,1,0.011200,0.022000,0.014100*
1,1,0.011200,-0.022000,0.014100*
1,1,0.011200,-0.022000,-0.014100*
1,1,0.011200,0.022000,-0.014100*
%
%AMD35*
4,1,8,-0.028600,0.021200,-0.028600,-0.021200,-0.022200,-0.027600,0.022200,-0.027600,0.028600,-0.021200,0.028600,0.021200,0.022200,0.027600,-0.022200,0.027600,-0.028600,0.021200,0.0*
1,1,0.012800,-0.022200,0.021200*
1,1,0.012800,-0.022200,-0.021200*
1,1,0.012800,0.022200,-0.021200*
1,1,0.012800,0.022200,0.021200*
%
%AMD36*
4,1,8,-0.031500,0.008800,-0.031500,-0.008800,-0.018600,-0.021700,0.018600,-0.021700,0.031500,-0.008800,0.031500,0.008800,0.018600,0.021700,-0.018600,0.021700,-0.031500,0.008800,0.0*
1,1,0.025800,-0.018600,0.008800*
1,1,0.025800,-0.018600,-0.008800*
1,1,0.025800,0.018600,-0.008800*
1,1,0.025800,0.018600,0.008800*
%
%AMD37*
4,1,8,-0.031500,0.009900,-0.031500,-0.009900,-0.017700,-0.023700,0.017700,-0.023700,0.031500,-0.009900,0.031500,0.009900,0.017700,0.023700,-0.017700,0.023700,-0.031500,0.009900,0.0*
1,1,0.027600,-0.017700,0.009900*
1,1,0.027600,-0.017700,-0.009900*
1,1,0.027600,0.017700,-0.009900*
1,1,0.027600,0.017700,0.009900*
%
%AMD38*
4,1,8,-0.031500,0.009900,-0.031500,-0.009900,-0.017700,-0.023700,0.017700,-0.023700,0.031500,-0.009900,0.031500,0.009900,0.017700,0.023700,-0.017700,0.023700,-0.031500,0.009900,0.0*
1,1,0.027600,-0.017700,0.009900*
1,1,0.027600,-0.017700,-0.009900*
1,1,0.027600,0.017700,-0.009900*
1,1,0.027600,0.017700,0.009900*
%
G04~CAMADD=32~8~0.0~0.0~415.0~434.0~57.0~0.0~15~0.0~0.0~0.0~0.0~0~0.0~0.0~0.0~0.0~0~0.0~0.0~0.0~0.0~415.0~434.0*
%ADD32D32*%
%ADD33O,0.088000X0.032000*%
G04~CAMADD=34~8~0.0~0.0~552.0~395.0~56.0~0.0~15~0.0~0.0~0.0~0.0~0~0.0~0.0~0.0~0.0~0~0.0~0.0~0.0~0.0~552.0~395.0*
%ADD34D34*%
G04~CAMADD=35~8~0.0~0.0~552.0~572.0~64.0~0.0~15~0.0~0.0~0.0~0.0~0~0.0~0.0~0.0~0.0~0~0.0~0.0~0.0~90.0~572.0~552.0*
%ADD35D35*%
G04~CAMADD=36~8~0.0~0.0~434.0~631.0~129.0~0.0~15~0.0~0.0~0.0~0.0~0~0.0~0.0~0.0~0.0~0~0.0~0.0~0.0~90.0~630.0~433.0*
%ADD36D36*%
G04~CAMADD=37~8~0.0~0.0~474.0~631.0~138.0~0.0~15~0.0~0.0~0.0~0.0~0~0.0~0.0~0.0~0.0~0~0.0~0.0~0.0~90.0~630.0~473.0*
%ADD37D37*%
G04~CAMADD=38~8~0.0~0.0~474.0~631.0~138.0~0.0~15~0.0~0.0~0.0~0.0~0~0.0~0.0~0.0~0.0~0~0.0~0.0~0.0~90.0~630.0~473.0*
%ADD38D38*%
%ADD39C,0.070000*%
%ADD40R,0.070000X0.070000*%
%ADD41C,0.145800*%
%ADD42C,0.258000*%
%LNpcb-1*%
%LPD*%
G54D32*
X18515Y16200D03*
X19185D03*
X14235Y15300D03*
X13565D03*
X14225Y17800D03*
X13556D03*
X15485Y13200D03*
X14815D03*
X17235D03*
X16565D03*
X14815Y14200D03*
X15485D03*
X16565D03*
X17235D03*
X19185Y17150D03*
X18515D03*
G54D33*
X17500Y17650D03*
Y17150D03*
Y16650D03*
Y16150D03*
X15300D03*
Y16650D03*
Y17150D03*
Y17650D03*
G54D34*
X13556Y16950D03*
X14244D03*
Y16150D03*
X13556D03*
G54D35*
X13700Y14174D03*
Y13426D03*
G54D36*
X19867Y16750D03*
G54D37*
X20733Y17124D03*
G54D38*
X20733Y16376D03*
G54D39*
X10800Y17950D03*
Y16950D03*
X11800Y17950D03*
X10800Y12950D03*
X11800D03*
X10800Y13950D03*
X11800D03*
X10800Y14950D03*
X11800D03*
X10800Y15950D03*
X11800D03*
Y16950D03*
Y18950D03*
G54D40*
X10800Y18950D03*
G54D41*
X21450Y12550D03*
Y14519D03*
G54D42*
X11050Y9050D03*
X21785D03*
Y22600D03*
X11050D03*
M02*