%FSLAX24Y24*%
%MOIN*%
%SFA1B1*%

%IPPOS*%
%ADD20C,0.250000*%
%ADD21C,0.137800*%
%ADD22C,0.062000*%
%ADD23R,0.062000X0.062000*%
%ADD24C,0.015000*%
%LNpcb-1*%
%LPD*%
G36*
X21275Y23850D02*
X21170Y23807D01*
X20989Y23696*
X20827Y23558*
X20689Y23396*
X20578Y23215*
X20497Y23018*
X20447Y22812*
X20431Y22600*
X20447Y22388*
X20497Y22182*
X20578Y21985*
X20689Y21804*
X20827Y21642*
X20989Y21504*
X21170Y21393*
X21367Y21312*
X21573Y21263*
X21785Y21246*
X21997Y21263*
X22203Y21312*
X22400Y21393*
X22581Y21504*
X22743Y21642*
X22881Y21804*
X22992Y21985*
X23063Y22157*
X23113Y22147*
X23066Y9614*
X23017Y9604*
X22992Y9665*
X22881Y9846*
X22743Y10008*
X22581Y10146*
X22400Y10257*
X22203Y10338*
X21997Y10388*
X21785Y10404*
X21573Y10388*
X21367Y10338*
X21170Y10257*
X20989Y10146*
X20827Y10008*
X20689Y9846*
X20578Y9665*
X20497Y9468*
X20447Y9262*
X20431Y9050*
X20447Y8838*
X20497Y8632*
X20578Y8435*
X20689Y8254*
X20827Y8092*
X20989Y7954*
X21170Y7843*
X21275Y7800*
X21265Y7750*
X11570*
X11560Y7800*
X11665Y7843*
X11846Y7954*
X12008Y8092*
X12146Y8254*
X12257Y8435*
X12338Y8632*
X12387Y8838*
X12404Y9050*
X12387Y9262*
X12338Y9468*
X12257Y9665*
X12146Y9846*
X12008Y10008*
X11846Y10146*
X11665Y10257*
X11468Y10338*
X11262Y10388*
X11050Y10404*
X10838Y10388*
X10632Y10338*
X10435Y10257*
X10254Y10146*
X10092Y10008*
X9954Y9846*
X9843Y9665*
X9762Y9468*
X9712Y9262*
X9700Y9103*
X9650Y9105*
Y22545*
X9700Y22547*
X9712Y22388*
X9762Y22182*
X9843Y21985*
X9954Y21804*
X10092Y21642*
X10254Y21504*
X10435Y21393*
X10632Y21312*
X10838Y21263*
X11050Y21246*
X11262Y21263*
X11468Y21312*
X11665Y21393*
X11846Y21504*
X12008Y21642*
X12146Y21804*
X12257Y21985*
X12338Y22182*
X12387Y22388*
X12404Y22600*
X12387Y22812*
X12338Y23018*
X12257Y23215*
X12146Y23396*
X12008Y23558*
X11846Y23696*
X11665Y23807*
X11560Y23850*
X11570Y23900*
X21265*
X21275Y23850*
G37*
%LNpcb-2*%
%LPC*%
G36*
X16050Y14368D02*
X16032Y14365D01*
X15974Y14326*
X15935Y14268*
X15932Y14250*
X16050*
Y14368*
G37*
G36*
X16150D02*
Y14250D01*
X16268*
X16265Y14268*
X16226Y14326*
X16168Y14365*
X16150Y14368*
G37*
G36*
X14500D02*
Y14250D01*
X14618*
X14615Y14268*
X14576Y14326*
X14518Y14365*
X14500Y14368*
G37*
G36*
X16268Y14150D02*
X16150D01*
Y14032*
X16168Y14035*
X16226Y14074*
X16265Y14132*
X16268Y14150*
G37*
G36*
X14400Y14368D02*
X14382Y14365D01*
X14324Y14326*
X14285Y14268*
X14282Y14250*
X14400*
Y14368*
G37*
G36*
X13650Y14550D02*
X13532D01*
X13535Y14532*
X13574Y14474*
X13632Y14435*
X13650Y14432*
Y14550*
G37*
G36*
Y14768D02*
X13632Y14765D01*
X13574Y14726*
X13535Y14668*
X13532Y14650*
X13650*
Y14768*
G37*
G36*
X13750D02*
Y14650D01*
X13868*
X13865Y14668*
X13826Y14726*
X13768Y14765*
X13750Y14768*
G37*
G36*
X11800Y15364D02*
X11693Y15349D01*
X11593Y15308*
X11508Y15242*
X11442Y15157*
X11401Y15057*
X11386Y14950*
X11401Y14843*
X11442Y14743*
X11508Y14658*
X11593Y14592*
X11693Y14551*
X11800Y14536*
X11907Y14551*
X12007Y14592*
X12092Y14658*
X12158Y14743*
X12199Y14843*
X12214Y14950*
X12199Y15057*
X12158Y15157*
X12092Y15242*
X12007Y15308*
X11907Y15349*
X11800Y15364*
G37*
G36*
X13868Y14550D02*
X13750D01*
Y14432*
X13768Y14435*
X13826Y14474*
X13865Y14532*
X13868Y14550*
G37*
G36*
X10800Y15364D02*
X10693Y15349D01*
X10593Y15308*
X10508Y15242*
X10442Y15157*
X10401Y15057*
X10386Y14950*
X10401Y14843*
X10442Y14743*
X10508Y14658*
X10593Y14592*
X10693Y14551*
X10800Y14536*
X10907Y14551*
X11007Y14592*
X11092Y14658*
X11158Y14743*
X11199Y14843*
X11214Y14950*
X11199Y15057*
X11158Y15157*
X11092Y15242*
X11007Y15308*
X10907Y15349*
X10800Y15364*
G37*
G36*
X16050Y14150D02*
X15932D01*
X15935Y14132*
X15974Y14074*
X16032Y14035*
X16050Y14032*
Y14150*
G37*
G36*
X10800Y14364D02*
X10693Y14349D01*
X10593Y14308*
X10508Y14242*
X10442Y14157*
X10401Y14057*
X10386Y13950*
X10401Y13843*
X10442Y13743*
X10508Y13658*
X10593Y13592*
X10693Y13551*
X10800Y13536*
X10907Y13551*
X11007Y13592*
X11092Y13658*
X11158Y13743*
X11199Y13843*
X11214Y13950*
X11199Y14057*
X11158Y14157*
X11092Y14242*
X11007Y14308*
X10907Y14349*
X10800Y14364*
G37*
G36*
X11750Y13900D02*
X11393D01*
X11401Y13843*
X11442Y13743*
X11508Y13658*
X11593Y13592*
X11693Y13551*
X11750Y13543*
Y13900*
G37*
G36*
X11800Y13364D02*
X11693Y13349D01*
X11593Y13308*
X11508Y13242*
X11442Y13157*
X11401Y13057*
X11386Y12950*
X11401Y12843*
X11442Y12743*
X11508Y12658*
X11593Y12592*
X11693Y12551*
X11800Y12536*
X11907Y12551*
X12007Y12592*
X12092Y12658*
X12158Y12743*
X12199Y12843*
X12214Y12950*
X12199Y13057*
X12158Y13157*
X12092Y13242*
X12007Y13308*
X11907Y13349*
X11800Y13364*
G37*
G36*
X21450Y13343D02*
X21295Y13328D01*
X21147Y13282*
X21010Y13209*
X20889Y13111*
X20791Y12990*
X20718Y12853*
X20672Y12705*
X20657Y12550*
X20672Y12395*
X20718Y12247*
X20791Y12110*
X20889Y11989*
X21010Y11891*
X21147Y11818*
X21295Y11772*
X21450Y11757*
X21605Y11772*
X21753Y11818*
X21890Y11891*
X22011Y11989*
X22109Y12110*
X22182Y12247*
X22228Y12395*
X22243Y12550*
X22228Y12705*
X22182Y12853*
X22109Y12990*
X22011Y13111*
X21890Y13209*
X21753Y13282*
X21605Y13328*
X21450Y13343*
G37*
G36*
X10800Y13364D02*
X10693Y13349D01*
X10593Y13308*
X10508Y13242*
X10442Y13157*
X10401Y13057*
X10386Y12950*
X10401Y12843*
X10442Y12743*
X10508Y12658*
X10593Y12592*
X10693Y12551*
X10800Y12536*
X10907Y12551*
X11007Y12592*
X11092Y12658*
X11158Y12743*
X11199Y12843*
X11214Y12950*
X11199Y13057*
X11158Y13157*
X11092Y13242*
X11007Y13308*
X10907Y13349*
X10800Y13364*
G37*
G36*
X12207Y13900D02*
X11850D01*
Y13543*
X11907Y13551*
X12007Y13592*
X12092Y13658*
X12158Y13743*
X12199Y13843*
X12207Y13900*
G37*
G36*
X14400Y14150D02*
X14282D01*
X14285Y14132*
X14324Y14074*
X14382Y14035*
X14400Y14032*
Y14150*
G37*
G36*
X14618D02*
X14500D01*
Y14032*
X14518Y14035*
X14576Y14074*
X14615Y14132*
X14618Y14150*
G37*
G36*
X11850Y14357D02*
Y14000D01*
X12207*
X12199Y14057*
X12158Y14157*
X12092Y14242*
X12007Y14308*
X11907Y14349*
X11850Y14357*
G37*
G36*
X21450Y15311D02*
X21295Y15296D01*
X21147Y15251*
X21010Y15178*
X20889Y15079*
X20791Y14959*
X20718Y14822*
X20672Y14673*
X20657Y14519*
X20672Y14364*
X20718Y14215*
X20791Y14078*
X20889Y13958*
X21010Y13859*
X21147Y13786*
X21295Y13741*
X21450Y13726*
X21605Y13741*
X21753Y13786*
X21890Y13859*
X22011Y13958*
X22109Y14078*
X22182Y14215*
X22228Y14364*
X22243Y14519*
X22228Y14673*
X22182Y14822*
X22109Y14959*
X22011Y15079*
X21890Y15178*
X21753Y15251*
X21605Y15296*
X21450Y15311*
G37*
G36*
X11750Y14357D02*
X11693Y14349D01*
X11593Y14308*
X11508Y14242*
X11442Y14157*
X11401Y14057*
X11393Y14000*
X11750*
Y14357*
G37*
G36*
X10800Y16364D02*
X10693Y16349D01*
X10593Y16308*
X10508Y16242*
X10442Y16157*
X10401Y16057*
X10386Y15950*
X10401Y15843*
X10442Y15743*
X10508Y15658*
X10593Y15592*
X10693Y15551*
X10800Y15536*
X10907Y15551*
X11007Y15592*
X11092Y15658*
X11158Y15743*
X11199Y15843*
X11214Y15950*
X11199Y16057*
X11158Y16157*
X11092Y16242*
X11007Y16308*
X10907Y16349*
X10800Y16364*
G37*
G36*
X17368Y18350D02*
X17250D01*
Y18232*
X17268Y18235*
X17326Y18274*
X17365Y18332*
X17368Y18350*
G37*
G36*
X17150Y18568D02*
X17132Y18565D01*
X17074Y18526*
X17035Y18468*
X17032Y18450*
X17150*
Y18568*
G37*
G36*
Y18350D02*
X17032D01*
X17035Y18332*
X17074Y18274*
X17132Y18235*
X17150Y18232*
Y18350*
G37*
G36*
X10800Y18364D02*
X10693Y18349D01*
X10593Y18308*
X10508Y18242*
X10442Y18157*
X10401Y18057*
X10386Y17950*
X10401Y17843*
X10442Y17743*
X10508Y17658*
X10593Y17592*
X10693Y17551*
X10800Y17536*
X10907Y17551*
X11007Y17592*
X11092Y17658*
X11158Y17743*
X11199Y17843*
X11214Y17950*
X11199Y18057*
X11158Y18157*
X11092Y18242*
X11007Y18308*
X10907Y18349*
X10800Y18364*
G37*
G36*
X11800D02*
X11693Y18349D01*
X11593Y18308*
X11508Y18242*
X11442Y18157*
X11401Y18057*
X11386Y17950*
X11401Y17843*
X11442Y17743*
X11508Y17658*
X11593Y17592*
X11693Y17551*
X11800Y17536*
X11907Y17551*
X12007Y17592*
X12092Y17658*
X12158Y17743*
X12199Y17843*
X12214Y17950*
X12199Y18057*
X12158Y18157*
X12092Y18242*
X12007Y18308*
X11907Y18349*
X11800Y18364*
G37*
G36*
X17250Y18568D02*
Y18450D01*
X17368*
X17365Y18468*
X17326Y18526*
X17268Y18565*
X17250Y18568*
G37*
G36*
X11750Y19357D02*
X11693Y19349D01*
X11593Y19308*
X11508Y19242*
X11442Y19157*
X11401Y19057*
X11393Y19000*
X11750*
Y19357*
G37*
G36*
X11850D02*
Y19000D01*
X12207*
X12199Y19057*
X12158Y19157*
X12092Y19242*
X12007Y19308*
X11907Y19349*
X11850Y19357*
G37*
G36*
X12207Y18900D02*
X11850D01*
Y18543*
X11907Y18551*
X12007Y18592*
X12092Y18658*
X12158Y18743*
X12199Y18843*
X12207Y18900*
G37*
G36*
X11210Y19360D02*
X10390D01*
Y18540*
X11210*
Y19360*
G37*
G36*
X11750Y18900D02*
X11393D01*
X11401Y18843*
X11442Y18743*
X11508Y18658*
X11593Y18592*
X11693Y18551*
X11750Y18543*
Y18900*
G37*
G36*
X14800Y17318D02*
Y17200D01*
X14918*
X14915Y17218*
X14876Y17276*
X14818Y17315*
X14800Y17318*
G37*
G36*
X20200Y16700D02*
X20082D01*
X20085Y16682*
X20124Y16624*
X20182Y16585*
X20200Y16582*
Y16700*
G37*
G36*
X20418D02*
X20300D01*
Y16582*
X20318Y16585*
X20376Y16624*
X20415Y16682*
X20418Y16700*
G37*
G36*
X11800Y17364D02*
X11693Y17349D01*
X11593Y17308*
X11508Y17242*
X11442Y17157*
X11401Y17057*
X11386Y16950*
X11401Y16843*
X11442Y16743*
X11508Y16658*
X11593Y16592*
X11693Y16551*
X11800Y16536*
X11907Y16551*
X12007Y16592*
X12092Y16658*
X12158Y16743*
X12199Y16843*
X12214Y16950*
X12199Y17057*
X12158Y17157*
X12092Y17242*
X12007Y17308*
X11907Y17349*
X11800Y17364*
G37*
G36*
Y16364D02*
X11693Y16349D01*
X11593Y16308*
X11508Y16242*
X11442Y16157*
X11401Y16057*
X11386Y15950*
X11401Y15843*
X11442Y15743*
X11508Y15658*
X11593Y15592*
X11693Y15551*
X11800Y15536*
X11907Y15551*
X12007Y15592*
X12092Y15658*
X12158Y15743*
X12199Y15843*
X12214Y15950*
X12199Y16057*
X12158Y16157*
X12092Y16242*
X12007Y16308*
X11907Y16349*
X11800Y16364*
G37*
G36*
X10800Y17364D02*
X10693Y17349D01*
X10593Y17308*
X10508Y17242*
X10442Y17157*
X10401Y17057*
X10386Y16950*
X10401Y16843*
X10442Y16743*
X10508Y16658*
X10593Y16592*
X10693Y16551*
X10800Y16536*
X10907Y16551*
X11007Y16592*
X11092Y16658*
X11158Y16743*
X11199Y16843*
X11214Y16950*
X11199Y17057*
X11158Y17157*
X11092Y17242*
X11007Y17308*
X10907Y17349*
X10800Y17364*
G37*
G36*
X14700Y16900D02*
X14582D01*
X14585Y16882*
X14624Y16824*
X14682Y16785*
X14700Y16782*
Y16900*
G37*
G36*
X14918Y17100D02*
X14582D01*
X14585Y17082*
X14606Y17050*
X14585Y17018*
X14582Y17000*
X14918*
X14915Y17018*
X14894Y17050*
X14915Y17082*
X14918Y17100*
G37*
G36*
X14700Y17318D02*
X14682Y17315D01*
X14624Y17276*
X14585Y17218*
X14582Y17200*
X14700*
Y17318*
G37*
G36*
X20300Y16918D02*
Y16800D01*
X20418*
X20415Y16818*
X20376Y16876*
X20318Y16915*
X20300Y16918*
G37*
G36*
X14918Y16900D02*
X14800D01*
Y16782*
X14818Y16785*
X14876Y16824*
X14915Y16882*
X14918Y16900*
G37*
G36*
X20200Y16918D02*
X20182Y16915D01*
X20124Y16876*
X20085Y16818*
X20082Y16800*
X20200*
Y16918*
G37*
%LNpcb-3*%
%LPD*%
G54D20*
X11050Y22600D03*
X21785D03*
Y9050D03*
X11050D03*
G54D21*
X21450Y14519D03*
Y12550D03*
G54D22*
X11800Y18950D03*
Y16950D03*
Y15950D03*
X10800D03*
X11800Y14950D03*
X10800D03*
X11800Y13950D03*
X10800D03*
X11800Y12950D03*
X10800D03*
X11800Y17950D03*
X10800Y16950D03*
Y17950D03*
G54D23*
X10800Y18950D03*
G54D24*
X13100Y16150D03*
X14450Y14200D03*
X14750Y17150D03*
Y16950D03*
X13700Y14600D03*
X16100Y14200D03*
X20250Y16750D03*
M02*