%FSLAX24Y24*%
%MOIN*%
%SFA1B1*%

%IPPOS*%
%ADD17C,0.010000*%
%ADD25C,0.024800*%
%ADD26C,0.012000*%
%ADD27C,0.008000*%
%ADD28C,0.011800*%
%ADD29C,0.007900*%
%ADD30C,0.004000*%
%ADD31C,0.005000*%
%LNpcb-1*%
%LPD*%
G54D17*
X16150Y17900D02*
D01*
X16150Y17882*
X16152Y17865*
X16155Y17848*
X16159Y17831*
X16165Y17814*
X16171Y17798*
X16179Y17782*
X16187Y17767*
X16197Y17753*
X16208Y17739*
X16220Y17726*
X16232Y17714*
X16246Y17702*
X16260Y17692*
X16275Y17683*
X16290Y17675*
X16306Y17668*
X16322Y17662*
X16339Y17657*
X16356Y17653*
X16373Y17651*
X16391Y17650*
X16408*
X16426Y17651*
X16443Y17653*
X16460Y17657*
X16477Y17662*
X16493Y17668*
X16509Y17675*
X16525Y17683*
X16539Y17692*
X16553Y17702*
X16567Y17714*
X16579Y17726*
X16591Y17739*
X16602Y17753*
X16612Y17767*
X16620Y17782*
X16628Y17798*
X16634Y17814*
X16640Y17831*
X16644Y17848*
X16647Y17865*
X16649Y17882*
X16650Y17900*
X15900D02*
X16150D01*
X16650D02*
X16900D01*
Y15900D02*
Y17900D01*
X15900Y15900D02*
X16900D01*
X15900D02*
Y17900D01*
G54D25*
X15367Y18120D02*
D01*
X15366Y18125*
X15366Y18130*
X15365Y18136*
X15363Y18141*
X15362Y18147*
X15360Y18152*
X15357Y18157*
X15354Y18161*
X15351Y18166*
X15348Y18170*
X15344Y18174*
X15340Y18178*
X15336Y18182*
X15332Y18185*
X15327Y18188*
X15322Y18191*
X15317Y18193*
X15312Y18195*
X15307Y18196*
X15301Y18197*
X15296Y18198*
X15290Y18198*
X15285*
X15279Y18198*
X15274Y18197*
X15268Y18196*
X15263Y18195*
X15258Y18193*
X15253Y18191*
X15248Y18188*
X15243Y18185*
X15239Y18182*
X15235Y18178*
X15231Y18174*
X15227Y18170*
X15224Y18166*
X15221Y18161*
X15218Y18157*
X15215Y18152*
X15213Y18147*
X15212Y18141*
X15210Y18136*
X15209Y18130*
X15209Y18125*
X15209Y18120*
X15209Y18114*
X15209Y18109*
X15210Y18103*
X15212Y18098*
X15213Y18092*
X15215Y18087*
X15218Y18082*
X15221Y18078*
X15224Y18073*
X15227Y18069*
X15231Y18065*
X15235Y18061*
X15239Y18057*
X15243Y18054*
X15248Y18051*
X15253Y18048*
X15258Y18046*
X15263Y18044*
X15268Y18043*
X15274Y18042*
X15279Y18041*
X15285Y18041*
X15290*
X15296Y18041*
X15301Y18042*
X15307Y18043*
X15312Y18044*
X15317Y18046*
X15322Y18048*
X15327Y18051*
X15332Y18054*
X15336Y18057*
X15340Y18061*
X15344Y18065*
X15348Y18069*
X15351Y18073*
X15354Y18078*
X15357Y18082*
X15360Y18087*
X15362Y18092*
X15363Y18098*
X15365Y18103*
X15366Y18109*
X15366Y18114*
X15367Y18120*
G54D26*
X19883Y17326D02*
X20283D01*
X19883Y16176D02*
X20283D01*
X19883Y17126D02*
Y17326D01*
Y16176D02*
Y16376D01*
G54D27*
X18385Y16815D02*
X19315D01*
X18385Y17485D02*
X19315D01*
X13396Y16465D02*
X14404D01*
X13396Y15835D02*
X14404D01*
X16435Y14535D02*
X17365D01*
X16435Y13865D02*
X17365D01*
X14685Y14535D02*
X15615D01*
X14685Y13865D02*
X15615D01*
X13306Y13296D02*
Y14304D01*
X14094Y13296D02*
Y14304D01*
X13396Y16635D02*
X14404D01*
X13396Y17265D02*
X14404D01*
X16435Y12865D02*
X17365D01*
X16435Y13535D02*
X17365D01*
X14685Y12865D02*
X15615D01*
X14685Y13535D02*
X15615D01*
X15790Y13041D02*
Y13359D01*
X13426Y17465D02*
X14355D01*
X13426Y18135D02*
X14355D01*
X13435Y14965D02*
X14365D01*
X13435Y15635D02*
X14365D01*
X18385Y16535D02*
X19315D01*
X18385Y15865D02*
X19315D01*
G54D28*
X22651Y14026D02*
X23044Y13633D01*
X22651Y15011D02*
X23044Y15404D01*
X22651Y14026D02*
Y15011D01*
Y12058D02*
X23044Y11664D01*
X22651Y13042D02*
X23044Y13436D01*
X22651Y12058D02*
Y13042D01*
X19836Y11566D02*
X21450D01*
X23064*
X19836D02*
Y15503D01*
X23064Y11566D02*
Y15503D01*
X19836D02*
X23064D01*
G54D29*
X18989Y12747D02*
X19285Y12550D01*
X18989D02*
Y12747D01*
Y12353D02*
Y12550D01*
Y12353D02*
X19285Y12550D01*
G54D30*
X9800Y10950D02*
X12800D01*
X9800Y20700D02*
X12800D01*
X9550Y20950D02*
X13050D01*
X9550Y10700D02*
X13050D01*
X9550Y20950D02*
X9560Y10700D01*
X12800Y10950D02*
Y20700D01*
X13040Y10710D02*
X13050Y20950D01*
X9800Y10950D02*
Y15950D01*
X9550Y15470D02*
X9800D01*
Y15950D02*
Y20700D01*
X9550Y16470D02*
X9800D01*
G54D31*
X16250Y15650D02*
Y15400D01*
X16300Y15350*
X16400*
X16450Y15400*
Y15650*
X16550Y15350D02*
X16650D01*
X16600*
Y15650*
X16550Y15600*
X14900Y14750D02*
Y15050D01*
X15050*
X15100Y15000*
Y14900*
X15050Y14850*
X14900*
X15000D02*
X15100Y14750D01*
X15200Y15050D02*
X15400D01*
Y15000*
X15200Y14800*
Y14750*
X16600D02*
Y15050D01*
X16750*
X16800Y15000*
Y14900*
X16750Y14850*
X16600*
X16700D02*
X16800Y14750D01*
X17100Y15050D02*
X17000Y15000D01*
X16900Y14900*
Y14800*
X16950Y14750*
X17050*
X17100Y14800*
Y14850*
X17050Y14900*
X16900*
X16600Y12350D02*
Y12650D01*
X16750*
X16800Y12600*
Y12500*
X16750Y12450*
X16600*
X16700D02*
X16800Y12350D01*
X17100Y12650D02*
X16900D01*
Y12500*
X17000Y12550*
X17050*
X17100Y12500*
Y12400*
X17050Y12350*
X16950*
X16900Y12400*
X13650Y18300D02*
Y18600D01*
X13800*
X13850Y18550*
Y18450*
X13800Y18400*
X13650*
X13750D02*
X13850Y18300D01*
X14100D02*
Y18600D01*
X13950Y18450*
X14150*
X13650Y19650D02*
Y19950D01*
X13800*
X13850Y19900*
Y19800*
X13800Y19750*
X13650*
X13750D02*
X13850Y19650D01*
X13950Y19900D02*
X14000Y19950D01*
X14100*
X14150Y19900*
Y19850*
X14100Y19800*
X14050*
X14100*
X14150Y19750*
Y19700*
X14100Y19650*
X14000*
X13950Y19700*
X18600Y15300D02*
Y15600D01*
X18750*
X18800Y15550*
Y15450*
X18750Y15400*
X18600*
X18700D02*
X18800Y15300D01*
X19100D02*
X18900D01*
X19100Y15500*
Y15550*
X19050Y15600*
X18950*
X18900Y15550*
X18600Y17700D02*
Y18000D01*
X18750*
X18800Y17950*
Y17850*
X18750Y17800*
X18600*
X18700D02*
X18800Y17700D01*
X18900D02*
X19000D01*
X18950*
Y18000*
X18900Y17950*
X20960Y14340D02*
Y14640D01*
X21110*
X21160Y14590*
Y14490*
X21110Y14440*
X20960*
X21260Y14340D02*
X21360D01*
X21310*
Y14640*
X21260Y14590*
X14900Y12650D02*
Y12350D01*
X15050*
X15100Y12400*
Y12600*
X15050Y12650*
X14900*
X15400Y12350D02*
X15200D01*
X15400Y12550*
Y12600*
X15350Y12650*
X15250*
X15200Y12600*
X20100Y17850D02*
Y17550D01*
X20250*
X20300Y17600*
Y17800*
X20250Y17850*
X20100*
X20400Y17550D02*
X20500D01*
X20450*
Y17850*
X20400Y17800*
X13850Y19000D02*
X13800Y19050D01*
X13700*
X13650Y19000*
Y18800*
X13700Y18750*
X13800*
X13850Y18800*
X13950Y19000D02*
X14000Y19050D01*
X14100*
X14150Y19000*
Y18950*
X14100Y18900*
X14050*
X14100*
X14150Y18850*
Y18800*
X14100Y18750*
X14000*
X13950Y18800*
X13850Y19450D02*
X13800Y19500D01*
X13700*
X13650Y19450*
Y19250*
X13700Y19200*
X13800*
X13850Y19250*
X14150Y19200D02*
X13950D01*
X14150Y19400*
Y19450*
X14100Y19500*
X14000*
X13950Y19450*
X13700Y12950D02*
X13650Y13000D01*
X13550*
X13500Y12950*
Y12750*
X13550Y12700*
X13650*
X13700Y12750*
X13800Y12700D02*
X13900D01*
X13850*
Y13000*
X13800Y12950*
X17700Y13400D02*
Y13000D01*
X17967*
X18300Y13400D02*
X18167D01*
X18100Y13333*
Y13067*
X18167Y13000*
X18300*
X18366Y13067*
Y13333*
X18300Y13400*
X17700Y14350D02*
Y13950D01*
Y14150*
X17967*
Y14350*
Y13950*
X18100Y14350D02*
X18233D01*
X18167*
Y13950*
X18100*
X18233*
M02*