%FSLAX24Y24*%
%MOIN*%
%SFA1B1*%

%IPPOS*%
%AMD10*
4,1,8,-0.027500,0.009900,-0.027500,-0.009900,-0.017700,-0.019700,0.017700,-0.019700,0.027500,-0.009900,0.027500,0.009900,0.017700,0.019700,-0.017700,0.019700,-0.027500,0.009900,0.0*
1,1,0.019600,-0.017700,0.009900*
1,1,0.019600,-0.017700,-0.009900*
1,1,0.019600,0.017700,-0.009900*
1,1,0.019600,0.017700,0.009900*
%
%AMD11*
4,1,8,-0.027500,0.009900,-0.027500,-0.009900,-0.017700,-0.019700,0.017700,-0.019700,0.027500,-0.009900,0.027500,0.009900,0.017700,0.019700,-0.017700,0.019700,-0.027500,0.009900,0.0*
1,1,0.019600,-0.017700,0.009900*
1,1,0.019600,-0.017700,-0.009900*
1,1,0.019600,0.017700,-0.009900*
1,1,0.019600,0.017700,0.009900*
%
%AMD12*
4,1,8,-0.027500,0.008800,-0.027500,-0.008800,-0.018600,-0.017700,0.018600,-0.017700,0.027500,-0.008800,0.027500,0.008800,0.018600,0.017700,-0.018600,0.017700,-0.027500,0.008800,0.0*
1,1,0.017800,-0.018600,0.008800*
1,1,0.017800,-0.018600,-0.008800*
1,1,0.017800,0.018600,-0.008800*
1,1,0.017800,0.018600,0.008800*
%
%AMD13*
4,1,8,-0.015000,-0.017700,0.015000,-0.017700,0.016700,-0.016000,0.016700,0.016000,0.015000,0.017700,-0.015000,0.017700,-0.016700,0.016000,-0.016700,-0.016000,-0.015000,-0.017700,0.0*
1,1,0.003400,-0.015000,-0.016000*
1,1,0.003400,0.015000,-0.016000*
1,1,0.003400,0.015000,0.016000*
1,1,0.003400,-0.015000,0.016000*
%
%AMD14*
4,1,8,-0.022000,-0.015700,0.022000,-0.015700,0.023600,-0.014100,0.023600,0.014100,0.022000,0.015700,-0.022000,0.015700,-0.023600,0.014100,-0.023600,-0.014100,-0.022000,-0.015700,0.0*
1,1,0.003200,-0.022000,-0.014100*
1,1,0.003200,0.022000,-0.014100*
1,1,0.003200,0.022000,0.014100*
1,1,0.003200,-0.022000,0.014100*
%
%AMD15*
4,1,8,-0.024600,0.021200,-0.024600,-0.021200,-0.022200,-0.023600,0.022200,-0.023600,0.024600,-0.021200,0.024600,0.021200,0.022200,0.023600,-0.022200,0.023600,-0.024600,0.021200,0.0*
1,1,0.004800,-0.022200,0.021200*
1,1,0.004800,-0.022200,-0.021200*
1,1,0.004800,0.022200,-0.021200*
1,1,0.004800,0.022200,0.021200*
%
G04~CAMADD=10~8~0.0~0.0~394.0~551.0~98.0~0.0~15~0.0~0.0~0.0~0.0~0~0.0~0.0~0.0~0.0~0~0.0~0.0~0.0~90.0~550.0~393.0*
%ADD10D10*%
G04~CAMADD=11~8~0.0~0.0~394.0~551.0~98.0~0.0~15~0.0~0.0~0.0~0.0~0~0.0~0.0~0.0~0.0~0~0.0~0.0~0.0~90.0~550.0~393.0*
%ADD11D11*%
G04~CAMADD=12~8~0.0~0.0~354.0~551.0~89.0~0.0~15~0.0~0.0~0.0~0.0~0~0.0~0.0~0.0~0.0~0~0.0~0.0~0.0~90.0~550.0~353.0*
%ADD12D12*%
G04~CAMADD=13~8~0.0~0.0~335.0~354.0~17.0~0.0~15~0.0~0.0~0.0~0.0~0~0.0~0.0~0.0~0.0~0~0.0~0.0~0.0~180.0~334.0~354.0*
%ADD13D13*%
G04~CAMADD=14~8~0.0~0.0~472.0~315.0~16.0~0.0~15~0.0~0.0~0.0~0.0~0~0.0~0.0~0.0~0.0~0~0.0~0.0~0.0~180.0~472.0~314.0*
%ADD14D14*%
G04~CAMADD=15~8~0.0~0.0~472.0~492.0~24.0~0.0~15~0.0~0.0~0.0~0.0~0~0.0~0.0~0.0~0.0~0~0.0~0.0~0.0~90.0~492.0~472.0*
%ADD15D15*%
%ADD16O,0.080000X0.024000*%
%ADD17C,0.010000*%
%ADD18C,0.006000*%
%ADD19C,0.020000*%
%ADD20C,0.250000*%
%ADD21C,0.137800*%
%ADD22C,0.062000*%
%ADD23R,0.062000X0.062000*%
%ADD24C,0.015000*%
%LNpcb-1*%
%LPD*%
G36*
X17650Y17874D02*
X17220D01*
X17134Y17857*
X17061Y17809*
X17058Y17803*
X17000*
X16941Y17791*
X16892Y17758*
X16292Y17158*
X16259Y17109*
X16247Y17050*
Y15900*
X16259Y15841*
X16292Y15792*
X17082Y15002*
Y14479*
X17039Y14470*
X17000Y14445*
X16974Y14406*
X16965Y14360*
Y14040*
X16974Y13994*
X17000Y13955*
X17039Y13930*
X17082Y13921*
Y13479*
X17039Y13470*
X17000Y13445*
X16974Y13406*
X16965Y13360*
Y13040*
X16974Y12994*
X17000Y12955*
X17039Y12930*
X17084Y12921*
X17385*
X17431Y12930*
X17469Y12955*
X17495Y12994*
X17504Y13040*
Y13360*
X17495Y13406*
X17469Y13445*
X17431Y13470*
X17388Y13479*
Y13921*
X17431Y13930*
X17469Y13955*
X17495Y13994*
X17504Y14040*
Y14360*
X17495Y14406*
X17469Y14445*
X17431Y14470*
X17388Y14479*
Y15065*
X17376Y15124*
X17343Y15173*
X16553Y15963*
Y16987*
X17058Y17492*
X17061Y17491*
X17134Y17443*
X17220Y17426*
X17650*
Y17374*
X17220*
X17134Y17357*
X17061Y17309*
X17013Y17236*
X16996Y17150*
X17007Y17095*
X16993Y17046*
X16975Y17030*
X16942Y17008*
X16842Y16908*
X16809Y16859*
X16797Y16800*
Y16250*
X16809Y16191*
X16842Y16142*
X16942Y16042*
X16991Y16009*
X17050Y15997*
X17058*
X17061Y15991*
X17134Y15943*
X17220Y15926*
X17650*
Y11250*
X10500*
X10285*
X10250Y11285*
Y15218*
X10296Y15238*
X10423Y15111*
X10401Y15057*
X10386Y14950*
X10401Y14843*
X10442Y14743*
X10508Y14658*
X10593Y14592*
X10693Y14551*
X10800Y14536*
X10907Y14551*
X11007Y14592*
X11092Y14658*
X11158Y14743*
X11199Y14843*
X11214Y14950*
X11199Y15057*
X11158Y15157*
X11092Y15242*
X11007Y15308*
X10907Y15349*
X10800Y15364*
X10693Y15349*
X10639Y15327*
X10250Y15716*
Y19384*
X10363Y19497*
X12437*
X12497Y19437*
Y18200*
X12509Y18141*
X12542Y18092*
X12942Y17692*
X12991Y17659*
X13050Y17647*
X13286*
Y17640*
X13295Y17594*
X13321Y17555*
X13359Y17530*
X13405Y17521*
X13706*
X13752Y17530*
X13790Y17555*
X13816Y17594*
X13825Y17640*
Y17960*
X13816Y18006*
X13790Y18045*
X13752Y18070*
X13706Y18079*
X13405*
X13359Y18070*
X13321Y18045*
X13295Y18006*
X13286Y17960*
Y17953*
X13113*
X12803Y18263*
Y19500*
X12791Y19559*
X12758Y19608*
X12608Y19758*
X12559Y19791*
X12500Y19803*
X10300*
X10250Y19844*
Y20400*
X17650*
Y17874*
G37*
%LNpcb-2*%
%LPC*%
G36*
X13922Y13765D02*
X13750D01*
Y13476*
X14048*
Y13639*
X14039Y13687*
X14012Y13728*
X13971Y13755*
X13922Y13765*
G37*
G36*
X10800Y14364D02*
X10693Y14349D01*
X10593Y14308*
X10508Y14242*
X10442Y14157*
X10401Y14057*
X10386Y13950*
X10401Y13843*
X10442Y13743*
X10508Y13658*
X10593Y13592*
X10693Y13551*
X10800Y13536*
X10907Y13551*
X11007Y13592*
X11092Y13658*
X11158Y13743*
X11199Y13843*
X11214Y13950*
X11199Y14057*
X11158Y14157*
X11092Y14242*
X11007Y14308*
X10907Y14349*
X10800Y14364*
G37*
G36*
X16515Y13479D02*
X16415D01*
X16369Y13470*
X16331Y13445*
X16305Y13406*
X16296Y13360*
Y13250*
X16515*
Y13479*
G37*
G36*
X16716D02*
X16615D01*
Y13250*
X16835*
Y13360*
X16826Y13406*
X16800Y13445*
X16761Y13470*
X16716Y13479*
G37*
G36*
X13650Y13765D02*
X13478D01*
X13429Y13755*
X13388Y13728*
X13361Y13687*
X13352Y13639*
Y13476*
X13650*
Y13765*
G37*
G36*
X16716Y14479D02*
X16415D01*
X16369Y14470*
X16331Y14445*
X16305Y14406*
X16304Y14404*
X16100*
X16022Y14388*
X15956Y14344*
X15912Y14278*
X15896Y14200*
X15912Y14122*
X15956Y14056*
X16022Y14012*
X16100Y13996*
X16304*
X16305Y13994*
X16331Y13955*
X16369Y13930*
X16415Y13921*
X16716*
X16761Y13930*
X16800Y13955*
X16826Y13994*
X16835Y14040*
Y14360*
X16826Y14406*
X16800Y14445*
X16761Y14470*
X16716Y14479*
G37*
G36*
X11800Y15364D02*
X11693Y15349D01*
X11593Y15308*
X11508Y15242*
X11442Y15157*
X11401Y15057*
X11386Y14950*
X11401Y14843*
X11442Y14743*
X11508Y14658*
X11593Y14592*
X11693Y14551*
X11800Y14536*
X11907Y14551*
X12007Y14592*
X12092Y14658*
X12158Y14743*
X12199Y14843*
X12214Y14950*
X12199Y15057*
X12158Y15157*
X12092Y15242*
X12007Y15308*
X11907Y15349*
X11800Y15364*
G37*
G36*
X14966Y14479D02*
X14665D01*
X14619Y14470*
X14581Y14445*
X14555Y14406*
X14554Y14404*
X14450*
X14372Y14388*
X14306Y14344*
X14262Y14278*
X14246Y14200*
X14262Y14122*
X14306Y14056*
X14372Y14012*
X14450Y13996*
X14554*
X14555Y13994*
X14581Y13955*
X14619Y13930*
X14665Y13921*
X14966*
X15011Y13930*
X15050Y13955*
X15076Y13994*
X15085Y14040*
Y14360*
X15076Y14406*
X15050Y14445*
X15011Y14470*
X14966Y14479*
G37*
G36*
X11800Y14364D02*
X11693Y14349D01*
X11593Y14308*
X11508Y14242*
X11442Y14157*
X11401Y14057*
X11386Y13950*
X11401Y13843*
X11442Y13743*
X11508Y13658*
X11593Y13592*
X11693Y13551*
X11800Y13536*
X11907Y13551*
X12007Y13592*
X12092Y13658*
X12158Y13743*
X12199Y13843*
X12214Y13950*
X12199Y14057*
X12158Y14157*
X12092Y14242*
X12007Y14308*
X11907Y14349*
X11800Y14364*
G37*
G36*
X13700Y14804D02*
X13622Y14788D01*
X13556Y14744*
X13512Y14678*
X13496Y14600*
Y14513*
X13478*
X13429Y14503*
X13388Y14476*
X13361Y14435*
X13352Y14387*
Y13961*
X13361Y13913*
X13388Y13872*
X13429Y13845*
X13478Y13835*
X13922*
X13971Y13845*
X14012Y13872*
X14039Y13913*
X14048Y13961*
Y14387*
X14039Y14435*
X14012Y14476*
X13971Y14503*
X13922Y14513*
X13904*
Y14600*
X13888Y14678*
X13844Y14744*
X13778Y14788*
X13700Y14804*
G37*
G36*
X14966Y13479D02*
X14865D01*
Y13250*
X15085*
Y13360*
X15076Y13406*
X15050Y13445*
X15011Y13470*
X14966Y13479*
G37*
G36*
X15085Y13150D02*
X14865D01*
Y12921*
X14966*
X15011Y12930*
X15050Y12955*
X15076Y12994*
X15085Y13040*
Y13150*
G37*
G36*
X15635Y14479D02*
X15334D01*
X15289Y14470*
X15250Y14445*
X15224Y14406*
X15215Y14360*
Y14040*
X15224Y13994*
X15250Y13955*
X15289Y13930*
X15332Y13921*
Y13479*
X15289Y13470*
X15250Y13445*
X15224Y13406*
X15215Y13360*
Y13040*
X15224Y12994*
X15250Y12955*
X15289Y12930*
X15334Y12921*
X15635*
X15681Y12930*
X15719Y12955*
X15745Y12994*
X15754Y13040*
Y13360*
X15745Y13406*
X15719Y13445*
X15681Y13470*
X15638Y13479*
Y13921*
X15681Y13930*
X15719Y13955*
X15745Y13994*
X15754Y14040*
Y14360*
X15745Y14406*
X15719Y14445*
X15681Y14470*
X15635Y14479*
G37*
G36*
X14765Y13150D02*
X14546D01*
Y13040*
X14555Y12994*
X14581Y12955*
X14619Y12930*
X14665Y12921*
X14765*
Y13150*
G37*
G36*
X10800Y13364D02*
X10693Y13349D01*
X10593Y13308*
X10508Y13242*
X10442Y13157*
X10401Y13057*
X10386Y12950*
X10401Y12843*
X10442Y12743*
X10508Y12658*
X10593Y12592*
X10693Y12551*
X10800Y12536*
X10907Y12551*
X11007Y12592*
X11092Y12658*
X11158Y12743*
X11199Y12843*
X11214Y12950*
X11199Y13057*
X11158Y13157*
X11092Y13242*
X11007Y13308*
X10907Y13349*
X10800Y13364*
G37*
G36*
X11800D02*
X11693Y13349D01*
X11593Y13308*
X11508Y13242*
X11442Y13157*
X11401Y13057*
X11386Y12950*
X11401Y12843*
X11442Y12743*
X11508Y12658*
X11593Y12592*
X11693Y12551*
X11800Y12536*
X11907Y12551*
X12007Y12592*
X12092Y12658*
X12158Y12743*
X12199Y12843*
X12214Y12950*
X12199Y13057*
X12158Y13157*
X12092Y13242*
X12007Y13308*
X11907Y13349*
X11800Y13364*
G37*
G36*
X14048Y13376D02*
X13750D01*
Y13087*
X13922*
X13971Y13097*
X14012Y13124*
X14039Y13165*
X14048Y13213*
Y13376*
G37*
G36*
X14765Y13479D02*
X14665D01*
X14619Y13470*
X14581Y13445*
X14555Y13406*
X14546Y13360*
Y13250*
X14765*
Y13479*
G37*
G36*
X13650Y13376D02*
X13352D01*
Y13213*
X13361Y13165*
X13388Y13124*
X13429Y13097*
X13478Y13087*
X13650*
Y13376*
G37*
G36*
X16515Y13150D02*
X16296D01*
Y13040*
X16305Y12994*
X16331Y12955*
X16369Y12930*
X16415Y12921*
X16515*
Y13150*
G37*
G36*
X16835D02*
X16615D01*
Y12921*
X16716*
X16761Y12930*
X16800Y12955*
X16826Y12994*
X16835Y13040*
Y13150*
G37*
G36*
X11800Y16364D02*
X11693Y16349D01*
X11593Y16308*
X11508Y16242*
X11442Y16157*
X11401Y16057*
X11386Y15950*
X11401Y15843*
X11442Y15743*
X11508Y15658*
X11593Y15592*
X11693Y15551*
X11800Y15536*
X11907Y15551*
X12007Y15592*
X12092Y15658*
X12158Y15743*
X12180Y15795*
X12229Y15805*
X12842Y15192*
X12891Y15159*
X12950Y15147*
X13296*
Y15140*
X13305Y15094*
X13331Y15055*
X13369Y15030*
X13415Y15021*
X13716*
X13761Y15030*
X13800Y15055*
X13826Y15094*
X13835Y15140*
Y15460*
X13826Y15506*
X13800Y15545*
X13761Y15570*
X13716Y15579*
X13415*
X13369Y15570*
X13331Y15545*
X13305Y15506*
X13296Y15460*
Y15453*
X13013*
X12358Y16108*
X12309Y16141*
X12250Y16153*
X12160*
X12158Y16157*
X12092Y16242*
X12007Y16308*
X11907Y16349*
X11800Y16364*
G37*
G36*
X13506Y17210D02*
X13335D01*
X13290Y17201*
X13252Y17175*
X13226Y17137*
X13217Y17092*
Y17000*
X13506*
Y17210*
G37*
G36*
X15580Y17374D02*
X15020D01*
X14934Y17357*
X14861Y17309*
X14858Y17303*
X14836*
X14818Y17315*
X14750Y17328*
X14682Y17315*
X14624Y17276*
X14585Y17218*
X14583Y17208*
X14582Y17206*
X14528Y17189*
X14510Y17201*
X14465Y17210*
X14024*
X13979Y17201*
X13941Y17175*
X13928Y17157*
X13872*
X13859Y17175*
X13821Y17201*
X13776Y17210*
X13606*
Y16950*
Y16690*
X13776*
X13821Y16699*
X13859Y16725*
X13872Y16743*
X13928*
X13941Y16725*
X13979Y16699*
X14024Y16690*
X14465*
X14510Y16699*
X14548Y16725*
X14574Y16763*
X14581Y16797*
X14664*
X14682Y16785*
X14750Y16772*
X14781Y16778*
X14813Y16736*
X14806Y16700*
X15250*
Y16874*
X15020*
X14998Y16870*
X14963Y16903*
X15000Y16930*
X15020Y16926*
X15580*
X15666Y16943*
X15739Y16991*
X15787Y17064*
X15804Y17150*
X15787Y17236*
X15739Y17309*
X15666Y17357*
X15580Y17374*
G37*
G36*
Y16874D02*
X15350D01*
Y16700*
X15794*
X15787Y16736*
X15739Y16809*
X15666Y16857*
X15580Y16874*
G37*
G36*
X11800Y17364D02*
X11693Y17349D01*
X11593Y17308*
X11508Y17242*
X11442Y17157*
X11401Y17057*
X11386Y16950*
X11401Y16843*
X11442Y16743*
X11508Y16658*
X11593Y16592*
X11693Y16551*
X11800Y16536*
X11907Y16551*
X12007Y16592*
X12092Y16658*
X12158Y16743*
X12199Y16843*
X12214Y16950*
X12199Y17057*
X12158Y17157*
X12092Y17242*
X12007Y17308*
X11907Y17349*
X11800Y17364*
G37*
G36*
X13506Y16900D02*
X13217D01*
Y16808*
X13226Y16763*
X13252Y16725*
X13290Y16699*
X13335Y16690*
X13506*
Y16900*
G37*
G36*
X11800Y19364D02*
X11693Y19349D01*
X11593Y19308*
X11508Y19242*
X11442Y19157*
X11401Y19057*
X11386Y18950*
X11401Y18843*
X11442Y18743*
X11508Y18658*
X11593Y18592*
X11693Y18551*
X11800Y18536*
X11907Y18551*
X12007Y18592*
X12092Y18658*
X12158Y18743*
X12199Y18843*
X12214Y18950*
X12199Y19057*
X12158Y19157*
X12092Y19242*
X12007Y19308*
X11907Y19349*
X11800Y19364*
G37*
G36*
X11210Y19360D02*
X10390D01*
Y18540*
X11210*
Y19360*
G37*
G36*
X11800Y18364D02*
X11693Y18349D01*
X11593Y18308*
X11508Y18242*
X11442Y18157*
X11401Y18057*
X11386Y17950*
X11401Y17843*
X11442Y17743*
X11508Y17658*
X11593Y17592*
X11693Y17551*
X11800Y17536*
X11907Y17551*
X12007Y17592*
X12092Y17658*
X12158Y17743*
X12199Y17843*
X12214Y17950*
X12199Y18057*
X12158Y18157*
X12092Y18242*
X12007Y18308*
X11907Y18349*
X11800Y18364*
G37*
G36*
X14375Y18079D02*
X14074D01*
X14029Y18070*
X13990Y18045*
X13964Y18006*
X13955Y17960*
Y17640*
X13964Y17594*
X13990Y17555*
X14029Y17530*
X14074Y17521*
X14375*
X14421Y17530*
X14460Y17555*
X14485Y17594*
X14494Y17640*
Y17647*
X14587*
X14692Y17542*
X14741Y17509*
X14800Y17497*
X14858*
X14861Y17491*
X14934Y17443*
X15020Y17426*
X15580*
X15666Y17443*
X15739Y17491*
X15787Y17564*
X15804Y17650*
X15787Y17736*
X15739Y17809*
X15666Y17857*
X15580Y17874*
X15020*
X14934Y17857*
X14861Y17809*
X14858Y17808*
X14758Y17908*
X14709Y17941*
X14650Y17953*
X14494*
Y17960*
X14485Y18006*
X14460Y18045*
X14421Y18070*
X14375Y18079*
G37*
G36*
X10800Y18364D02*
X10693Y18349D01*
X10593Y18308*
X10508Y18242*
X10442Y18157*
X10401Y18057*
X10386Y17950*
X10401Y17843*
X10442Y17743*
X10508Y17658*
X10593Y17592*
X10693Y17551*
X10800Y17536*
X10907Y17551*
X11007Y17592*
X11092Y17658*
X11158Y17743*
X11199Y17843*
X11214Y17950*
X11199Y18057*
X11158Y18157*
X11092Y18242*
X11007Y18308*
X10907Y18349*
X10800Y18364*
G37*
G36*
Y17364D02*
X10693Y17349D01*
X10593Y17308*
X10508Y17242*
X10442Y17157*
X10401Y17057*
X10386Y16950*
X10401Y16843*
X10442Y16743*
X10508Y16658*
X10593Y16592*
X10693Y16551*
X10800Y16536*
X10907Y16551*
X11007Y16592*
X11092Y16658*
X11158Y16743*
X11199Y16843*
X11214Y16950*
X11199Y17057*
X11158Y17157*
X11092Y17242*
X11007Y17308*
X10907Y17349*
X10800Y17364*
G37*
G36*
X15580Y16374D02*
X15020D01*
X14934Y16357*
X14861Y16309*
X14851Y16294*
X14840Y16291*
X14790Y16258*
X14692Y16160*
X14659Y16110*
X14647Y16051*
Y15463*
X14637Y15453*
X14504*
Y15460*
X14495Y15506*
X14469Y15545*
X14431Y15570*
X14385Y15579*
X14084*
X14039Y15570*
X14000Y15545*
X13974Y15506*
X13965Y15460*
Y15140*
X13974Y15094*
X14000Y15055*
X14039Y15030*
X14084Y15021*
X14385*
X14431Y15030*
X14469Y15055*
X14495Y15094*
X14504Y15140*
Y15147*
X14700*
X14759Y15159*
X14808Y15192*
X14908Y15292*
X14941Y15341*
X14953Y15400*
Y15900*
X14992Y15931*
X15020Y15926*
X15580*
X15666Y15943*
X15739Y15991*
X15787Y16064*
X15804Y16150*
X15787Y16236*
X15739Y16309*
X15666Y16357*
X15580Y16374*
G37*
G36*
X10750Y16357D02*
X10693Y16349D01*
X10593Y16308*
X10508Y16242*
X10442Y16157*
X10401Y16057*
X10393Y16000*
X10750*
Y16357*
G37*
G36*
X14583Y16100D02*
X14294D01*
Y15890*
X14465*
X14510Y15899*
X14548Y15925*
X14574Y15963*
X14583Y16008*
Y16100*
G37*
G36*
X10750Y15900D02*
X10393D01*
X10401Y15843*
X10442Y15743*
X10508Y15658*
X10593Y15592*
X10693Y15551*
X10750Y15543*
Y15900*
G37*
G36*
X11207D02*
X10850D01*
Y15543*
X10907Y15551*
X11007Y15592*
X11092Y15658*
X11158Y15743*
X11199Y15843*
X11207Y15900*
G37*
G36*
X15250Y16600D02*
X14806D01*
X14813Y16564*
X14861Y16491*
X14934Y16443*
X15020Y16426*
X15250*
Y16600*
G37*
G36*
X15794D02*
X15350D01*
Y16426*
X15580*
X15666Y16443*
X15739Y16491*
X15787Y16564*
X15794Y16600*
G37*
G36*
X14194Y16410D02*
X14024D01*
X13979Y16401*
X13941Y16375*
X13928Y16357*
X13872*
X13859Y16375*
X13821Y16401*
X13776Y16410*
X13335*
X13290Y16401*
X13252Y16375*
X13226Y16337*
Y16336*
X13170Y16313*
X13168Y16315*
X13100Y16328*
X13032Y16315*
X12974Y16276*
X12935Y16218*
X12922Y16150*
X12935Y16082*
X12974Y16024*
X13032Y15985*
X13100Y15972*
X13168Y15985*
X13170Y15987*
X13226Y15964*
Y15963*
X13252Y15925*
X13290Y15899*
X13335Y15890*
X13776*
X13821Y15899*
X13859Y15925*
X13872Y15943*
X13928*
X13941Y15925*
X13979Y15899*
X14024Y15890*
X14194*
Y16150*
Y16410*
G37*
G36*
X10850Y16357D02*
Y16000D01*
X11207*
X11199Y16057*
X11158Y16157*
X11092Y16242*
X11007Y16308*
X10907Y16349*
X10850Y16357*
G37*
G36*
X14465Y16410D02*
X14294D01*
Y16200*
X14583*
Y16292*
X14574Y16337*
X14548Y16375*
X14510Y16401*
X14465Y16410*
G37*
%LNpcb-3*%
%LPD*%
G54D10*
X20733Y16376D03*
G54D11*
X20733Y17124D03*
G54D12*
X19867Y16750D03*
G54D13*
X18515Y17150D03*
X19185D03*
X17235Y14200D03*
X16565D03*
X15485D03*
X14815D03*
X16565Y13200D03*
X17235D03*
X14815D03*
X15485D03*
X13556Y17800D03*
X14225D03*
X13565Y15300D03*
X14235D03*
X19185Y16200D03*
X18515D03*
G54D14*
X13556Y16150D03*
X14244D03*
Y16950D03*
X13556D03*
G54D15*
X13700Y13426D03*
Y14174D03*
G54D16*
X15300Y17650D03*
Y17150D03*
Y16650D03*
Y16150D03*
X17500D03*
Y16650D03*
Y17150D03*
Y17650D03*
G54D17*
X14800Y16051D02*
X14899Y16150D01*
X15300*
X14800Y15400D02*
Y16051D01*
X14700Y15300D02*
X14800Y15400D01*
X11850Y16000D02*
X12250D01*
X12950Y15300*
X13565*
X14235D02*
X14700D01*
X17050Y16150D02*
X17500D01*
X16950Y16250D02*
X17050Y16150D01*
X16950Y16250D02*
Y16800D01*
X11800Y15950D02*
X11850Y16000D01*
X10800Y14700D02*
Y14950D01*
X10050Y15700D02*
X10800Y14950D01*
X10050Y15700D02*
Y19400D01*
X10300Y19650*
X12500*
X12650Y19500*
X15485Y13200D02*
Y14200D01*
X17235Y13200D02*
Y14200D01*
Y13400D02*
Y15065D01*
X16400Y15900D02*
X17235Y15065D01*
X16400Y15900D02*
Y17050D01*
X17000Y17650*
X17500*
X16950Y16800D02*
X17050Y16900D01*
X17912D02*
X18219D01*
X18444Y16675*
X19185D02*
Y17150D01*
Y16200D02*
Y16675D01*
X18444D02*
X19185D01*
X14750Y16950D02*
Y17150D01*
X14244Y16950D02*
X14750D01*
Y17150D02*
X15300D01*
X20250Y16750D02*
D01*
X19867D02*
X20250D01*
X14225Y17800D02*
X14650D01*
X14800Y17650*
X15300*
X19867Y16750D02*
Y16823D01*
X12650Y18200D02*
Y19500D01*
Y18200D02*
X13050Y17800D01*
X13556*
G54D18*
X13100Y16150D02*
X13556D01*
X17050Y16900D02*
X17912D01*
G54D19*
X16100Y14200D02*
X16565D01*
X14450D02*
X14815D01*
X13700Y14174D02*
Y14600D01*
X17500Y16650D02*
X18065D01*
X18515Y16200*
Y16185D02*
Y16200D01*
Y16185D02*
X18900Y15800D01*
X20157*
X20733Y16376*
X17500Y17150D02*
X18515D01*
Y17465*
X18800Y17750*
X20000*
X20626Y17124*
X20733*
X21450Y14519D02*
X22300Y15368D01*
Y16750*
X21926Y17124D02*
X22300Y16750D01*
X20733Y17124D02*
X21926D01*
X21300Y16000D02*
Y16250D01*
X21174Y16376D02*
X21300Y16250D01*
X20733Y16376D02*
X21174D01*
X20400Y13600D02*
X21450Y12550D01*
X20400Y13600D02*
Y15100D01*
X21300Y16000*
G54D20*
X11050Y22600D03*
X21785D03*
Y9050D03*
X11050D03*
G54D21*
X21450Y14519D03*
Y12550D03*
G54D22*
X11800Y18950D03*
Y16950D03*
Y15950D03*
X10800D03*
X11800Y14950D03*
X10800D03*
X11800Y13950D03*
X10800D03*
X11800Y12950D03*
X10800D03*
X11800Y17950D03*
X10800Y16950D03*
Y17950D03*
G54D23*
X10800Y18950D03*
G54D24*
X13100Y16150D03*
X14450Y14200D03*
X14750Y17150D03*
Y16950D03*
X13700Y14600D03*
X16100Y14200D03*
X20250Y16750D03*
M02*